<svg width="177" height="42" viewBox="0 0 177 42" fill="none" xmlns="http://www.w3.org/2000/svg">
<g id="enem">
<path d="M114.983 19.9025C114.983 9.06201 108.532 0.0635187 95.8639 0.0635187C84.4164 0.0635187 75.7637 9.06907 75.7637 21.6105C75.7637 34.0249 84.4164 42 96.2309 42C106.161 42 112.795 36.5233 114.807 27.5177L108.532 26.7908C106.881 32.8745 102.992 36.0434 96.3438 36.0998C89.2227 36.0998 83.6824 30.6231 83.3154 22.895H114.976L114.983 19.9025ZM83.4989 17.9546C84.4164 11.3769 88.6792 5.78021 95.8639 5.78021C103.416 5.78021 107.008 11.5604 107.248 17.9546H83.4989ZM39.2193 19.9025C39.2193 9.06201 32.7616 0.0635187 20.1002 0.0635187C8.65266 0.0635187 0 9.06907 0 21.6105C0 34.0249 8.65267 42 20.4672 42C30.3972 42 37.0314 36.5233 39.0429 27.5177L32.7616 26.7908C31.1171 32.8745 27.2284 36.0434 20.5801 36.0998C13.4589 36.0998 7.91867 30.6231 7.54462 22.895H39.2193V19.9025ZM7.73517 17.9546C8.65266 11.3769 12.9155 5.78021 20.1002 5.78021C27.6518 5.78021 31.2442 11.5604 31.4841 17.9546H7.73517ZM60.8439 0C54.9367 0 49.5799 3.34532 47.632 8.15863V1.03747H40.0803V40.7931H47.632L47.6955 18.0252C47.6955 10.7206 52.4453 6.03428 58.409 6.03428C64.6833 6.03428 67.8521 10.2336 67.8521 16.8748V40.8567H75.4038V16.1902C75.3968 6.93766 71.1975 0 60.8439 0Z" fill="#E6EDF3" fill-opacity="0.9"/>
<path d="M176.441 16.1902V40.8426H168.882V16.8607C168.882 10.2195 166.144 6.02016 160.053 6.02016C154.449 6.02016 149.883 10.7135 149.883 18.0111V40.8355H142.331V16.8607C142.331 10.2195 139.586 6.02016 133.495 6.02016C127.835 6.02016 123.389 10.7135 123.389 18.0111V40.8355H115.837V1.09393H123.389V8.21509C125.344 3.4159 129.973 0.0635187 136.064 0.0635187C143.185 0.0635187 147.385 3.53588 149.093 8.70207C151.168 3.77584 156.101 0.0635187 162.432 0C172.785 0 176.441 7.18468 176.441 16.1902Z" fill="#E6EDF3" fill-opacity="0.9"/>
</g>
</svg>
